# xmcd
#
# Track frame offsets:
#	150
#	19265
#	29015
#	32721
#	43771
#	46756
#	55489
#	71321
#	100608
#	118043
#	130868
#	147181
#	187831
#
# Disc length: 4323 seconds
#
# Revision: 0
# Processed by: cddbd v1.5.2PL0 Copyright (c) Steve Scherf et al.
# Submitted via: EZCDAudioConverter 1.0.8.1
#
DISCID=af10e10d
DTITLE=Kalle G ja Rytin‰kerj‰l‰iset - Darwin oli v‰‰r‰ss‰
DYEAR=2011
DGENRE=Punk
TTITLE0=Darwin (sis Darwin boogie ja Suomukkaiden initaatio)
TTITLE1=Kultalusikka
TTITLE2=P‰‰kallo
TTITLE3=Meteli
TTITLE4=Juntta
TTITLE5=Aasipolkka
TTITLE6=Tohtori hyv‰
TTITLE7=Tarzanin poika
TTITLE8=Liike on l‰‰ke
TTITLE9=Tyhm‰ kuin Texas
TTITLE10=Kananp‰‰mies
TTITLE11=ssshh...
TTITLE12=From the Liaani-Highway to Hell (live Semifinal 2005, koko keikka)
EXTD=
EXTT0=
EXTT1=
EXTT2=
EXTT3=
EXTT4=
EXTT5=
EXTT6=
EXTT7=
EXTT8=
EXTT9=
EXTT10=
EXTT11=
EXTT12=
PLAYORDER=
